<svg xmlns="http://www.w3.org/2000/svg" style="display: none;">
  <!-- Construcción -->
  <symbol id="vivienda-residencial" viewBox="0 0 24 24" fill="none" stroke="currentColor" stroke-width="2.5" stroke-linecap="round" stroke-linejoin="round">
    <path d="M3 9l9-7 9 7v11a2 2 0 0 1-2 2H5a2 2 0 0 1-2-2z"/>
    <polyline points="9 22 9 12 15 12 15 22"/>
  </symbol>
  
  <symbol id="locales-bodegas" viewBox="0 0 24 24" fill="none" stroke="currentColor" stroke-width="2.5" stroke-linecap="round" stroke-linejoin="round">
    <rect x="3" y="3" width="18" height="18" rx="2" ry="2"/>
    <line x1="3" y1="9" x2="21" y2="9"/>
    <line x1="9" y1="21" x2="9" y2="9"/>
    <line x1="15" y1="21" x2="15" y2="9"/>
  </symbol>
  
  <symbol id="ampliaciones-segundas-plantas" viewBox="0 0 24 24" fill="none" stroke="currentColor" stroke-width="2.5" stroke-linecap="round" stroke-linejoin="round">
    <rect x="3" y="3" width="18" height="18" rx="2" ry="2"/>
    <line x1="3" y1="12" x2="21" y2="12"/>
    <line x1="12" y1="3" x2="12" y2="21"/>
    <line x1="3" y1="9" x2="9" y2="9"/>
    <line x1="15" y1="9" x2="21" y2="9"/>
  </symbol>
  
  <symbol id="obra-negra-estructura" viewBox="0 0 24 24" fill="none" stroke="currentColor" stroke-width="2.5" stroke-linecap="round" stroke-linejoin="round">
    <rect x="3" y="3" width="18" height="18" rx="2" ry="2"/>
    <line x1="3" y1="9" x2="21" y2="9"/>
    <line x1="9" y1="21" x2="9" y2="9"/>
    <line x1="15" y1="21" x2="15" y2="9"/>
    <line x1="3" y1="15" x2="21" y2="15"/>
  </symbol>
  
  <!-- Remodelación -->
  <symbol id="remodelacion-integral" viewBox="0 0 24 24" fill="none" stroke="currentColor" stroke-width="2.5" stroke-linecap="round" stroke-linejoin="round">
    <path d="M21 16V8a2 2 0 0 0-1-1.73l-7-4a2 2 0 0 0-2 0l-7 4A2 2 0 0 0 3 8v8a2 2 0 0 0 1 1.73l7 4a2 2 0 0 0 2 0l7-4A2 2 0 0 0 21 16z"/>
    <polyline points="3.27 6.96 12 12.01 20.73 6.96"/>
    <line x1="12" y1="22.08" x2="12" y2="12"/>
  </symbol>
  
  <symbol id="cocinas-banos" viewBox="0 0 24 24" fill="none" stroke="currentColor" stroke-width="2.5" stroke-linecap="round" stroke-linejoin="round">
    <rect x="3" y="3" width="18" height="18" rx="2" ry="2"/>
    <circle cx="8.5" cy="8.5" r="1.5"/>
    <path d="M21 15l-3.086-3.086a2 2 0 0 0-2.828 0L6 21"/>
  </symbol>
  
  <symbol id="reconfiguracion-espacios" viewBox="0 0 24 24" fill="none" stroke="currentColor" stroke-width="2.5" stroke-linecap="round" stroke-linejoin="round">
    <rect x="3" y="3" width="7" height="7"/>
    <rect x="14" y="3" width="7" height="7"/>
    <rect x="14" y="14" width="7" height="7"/>
    <rect x="3" y="14" width="7" height="7"/>
    <line x1="10" y1="6.5" x2="14" y2="6.5"/>
    <line x1="10" y1="17.5" x2="14" y2="17.5"/>
    <line x1="6.5" y1="10" x2="6.5" y2="14"/>
    <line x1="17.5" y1="10" x2="17.5" y2="14"/>
  </symbol>
  
  <symbol id="renovacion-venta-renta" viewBox="0 0 24 24" fill="none" stroke="currentColor" stroke-width="2.5" stroke-linecap="round" stroke-linejoin="round">
    <line x1="12" y1="1" x2="12" y2="23"/>
    <path d="M17 5H9.5a3.5 3.5 0 0 0 0 7h5a3.5 3.5 0 0 1 0 7H6"/>
  </symbol>
  
  <symbol id="renovacion-fachadas" viewBox="0 0 24 24" fill="none" stroke="currentColor" stroke-width="2.5" stroke-linecap="round" stroke-linejoin="round">
    <rect x="3" y="3" width="18" height="18" rx="2" ry="2"/>
    <line x1="3" y1="9" x2="21" y2="9"/>
    <line x1="9" y1="21" x2="9" y2="9"/>
    <path d="M21 15l-2-2-2 2-2-2-2 2"/>
  </symbol>
  
  <!-- Acabados -->
  <symbol id="pisos-recubrimientos" viewBox="0 0 24 24" fill="none" stroke="currentColor" stroke-width="2.5" stroke-linecap="round" stroke-linejoin="round">
    <rect x="3" y="3" width="18" height="18" rx="2" ry="2"/>
    <line x1="3" y1="9" x2="21" y2="9"/>
    <line x1="9" y1="21" x2="9" y2="9"/>
    <line x1="15" y1="21" x2="15" y2="9"/>
    <line x1="3" y1="15" x2="21" y2="15"/>
  </symbol>
  
  <symbol id="yeso-tablaroca-plafones" viewBox="0 0 24 24" fill="none" stroke="currentColor" stroke-width="2.5" stroke-linecap="round" stroke-linejoin="round">
    <rect x="3" y="3" width="18" height="18" rx="2" ry="2"/>
    <line x1="3" y1="12" x2="21" y2="12"/>
    <line x1="12" y1="3" x2="12" y2="21"/>
    <circle cx="7" cy="7" r="1"/>
    <circle cx="17" cy="7" r="1"/>
    <circle cx="7" cy="17" r="1"/>
    <circle cx="17" cy="17" r="1"/>
  </symbol>
  
  <symbol id="pintura-profesional" viewBox="0 0 24 24" fill="none" stroke="currentColor" stroke-width="2.5" stroke-linecap="round" stroke-linejoin="round">
    <path d="M12 2.69l5.66 5.66a8 8 0 1 1-11.31 0z"/>
    <circle cx="12" cy="12" r="2"/>
  </symbol>
  
  <symbol id="carpinteria-cancelería" viewBox="0 0 24 24" fill="none" stroke="currentColor" stroke-width="2.5" stroke-linecap="round" stroke-linejoin="round">
    <rect x="3" y="3" width="18" height="18" rx="2" ry="2"/>
    <line x1="3" y1="9" x2="21" y2="9"/>
    <line x1="9" y1="21" x2="9" y2="9"/>
    <path d="M9 9l6 6"/>
    <path d="M15 9l-6 6"/>
  </symbol>
  
  <!-- Instalaciones -->
  <symbol id="electrica" viewBox="0 0 24 24" fill="none" stroke="currentColor" stroke-width="2.5" stroke-linecap="round" stroke-linejoin="round">
    <polygon points="13 2 3 14 12 14 11 22 21 10 12 10 13 2"/>
  </symbol>
  
  <symbol id="hidraulica-sanitaria" viewBox="0 0 24 24" fill="none" stroke="currentColor" stroke-width="2.5" stroke-linecap="round" stroke-linejoin="round">
    <path d="M5 12h14"/>
    <path d="M5 12a2 2 0 1 0 0-4 2 2 0 0 0 0 4z"/>
    <path d="M5 12a2 2 0 1 1 0 4 2 2 0 0 1 0-4z"/>
    <path d="M19 12a2 2 0 1 0 0-4 2 2 0 0 0 0 4z"/>
    <path d="M19 12a2 2 0 1 1 0 4 2 2 0 0 1 0-4z"/>
    <circle cx="5" cy="12" r="1"/>
    <circle cx="19" cy="12" r="1"/>
  </symbol>
  
  <symbol id="gas" viewBox="0 0 24 24" fill="none" stroke="currentColor" stroke-width="2.5" stroke-linecap="round" stroke-linejoin="round">
    <circle cx="12" cy="12" r="10"/>
    <path d="M12 2a15.3 15.3 0 0 1 4 10 15.3 15.3 0 0 1-4 10 15.3 15.3 0 0 1-4-10 15.3 15.3 0 0 1 4-10z"/>
    <circle cx="12" cy="12" r="4"/>
  </symbol>
  
  <symbol id="iluminacion-arquitectonica" viewBox="0 0 24 24" fill="none" stroke="currentColor" stroke-width="2.5" stroke-linecap="round" stroke-linejoin="round">
    <circle cx="12" cy="12" r="5"/>
    <line x1="12" y1="1" x2="12" y2="3"/>
    <line x1="12" y1="21" x2="12" y2="23"/>
    <line x1="5.64" y1="5.64" x2="6.34" y2="6.34"/>
    <line x1="17.66" y1="17.66" x2="18.36" y2="18.36"/>
    <line x1="1" y1="12" x2="3" y2="12"/>
    <line x1="21" y1="12" x2="23" y2="12"/>
    <line x1="5.64" y1="18.36" x2="6.34" y2="17.66"/>
    <line x1="17.66" y1="6.34" x2="18.36" y2="5.64"/>
  </symbol>
  
  <!-- Exteriores -->
  <symbol id="bardas-accesos" viewBox="0 0 24 24" fill="none" stroke="currentColor" stroke-width="2.5" stroke-linecap="round" stroke-linejoin="round">
    <rect x="3" y="3" width="18" height="18" rx="2" ry="2"/>
    <line x1="3" y1="9" x2="21" y2="9"/>
    <line x1="9" y1="21" x2="9" y2="9"/>
    <path d="M9 9h6v6H9z"/>
  </symbol>
  
  <symbol id="terrazas-cocheras" viewBox="0 0 24 24" fill="none" stroke="currentColor" stroke-width="2.5" stroke-linecap="round" stroke-linejoin="round">
    <rect x="3" y="3" width="18" height="18" rx="2" ry="2"/>
    <line x1="3" y1="12" x2="21" y2="12"/>
    <path d="M12 3v18"/>
    <circle cx="8" cy="8" r="1"/>
    <circle cx="16" cy="8" r="1"/>
    <circle cx="8" cy="16" r="1"/>
    <circle cx="16" cy="16" r="1"/>
  </symbol>
  
  <symbol id="impermeabilizacion" viewBox="0 0 24 24" fill="none" stroke="currentColor" stroke-width="2.5" stroke-linecap="round" stroke-linejoin="round">
    <path d="M12 2.69l5.66 5.66a8 8 0 1 1-11.31 0z"/>
    <path d="M12 2.69v18.62"/>
    <path d="M6.34 8.35l11.32 11.32"/>
    <path d="M17.66 8.35L6.34 19.67"/>
  </symbol>
  
  <symbol id="drenaje-pluvial" viewBox="0 0 24 24" fill="none" stroke="currentColor" stroke-width="2.5" stroke-linecap="round" stroke-linejoin="round">
    <path d="M12 2.69l5.66 5.66a8 8 0 1 1-11.31 0z"/>
    <line x1="12" y1="2" x2="12" y2="22"/>
    <path d="M17 7l-5-5-5 5"/>
    <path d="M7 17l5 5 5-5"/>
  </symbol>
  
  <!-- Gestión de obra -->
  <symbol id="presupuestos-costos" viewBox="0 0 24 24" fill="none" stroke="currentColor" stroke-width="2.5" stroke-linecap="round" stroke-linejoin="round">
    <line x1="12" y1="20" x2="12" y2="10"/>
    <line x1="18" y1="20" x2="18" y2="4"/>
    <line x1="6" y1="20" x2="6" y2="16"/>
    <rect x="3" y="3" width="18" height="18" rx="2" ry="2"/>
  </symbol>
  
  <symbol id="supervision" viewBox="0 0 24 24" fill="none" stroke="currentColor" stroke-width="2.5" stroke-linecap="round" stroke-linejoin="round">
    <path d="M14 2H6a2 2 0 0 0-2 2v16a2 2 0 0 0 2 2h12a2 2 0 0 0 2-2V8z"/>
    <polyline points="14 2 14 8 20 8"/>
    <line x1="16" y1="13" x2="8" y2="13"/>
    <line x1="16" y1="17" x2="8" y2="17"/>
    <polyline points="10 9 9 9 8 9"/>
  </symbol>
  
  <symbol id="obra-llave-mano" viewBox="0 0 24 24" fill="none" stroke="currentColor" stroke-width="2.5" stroke-linecap="round" stroke-linejoin="round">
    <path d="M21 16V8a2 2 0 0 0-1-1.73l-7-4a2 2 0 0 0-2 0l-7 4A2 2 0 0 0 3 8v8a2 2 0 0 0 1 1.73l7 4a2 2 0 0 0 2 0l7-4A2 2 0 0 0 21 16z"/>
    <polyline points="7.5 4.21 12 6.81 16.5 4.21"/>
    <polyline points="7.5 19.79 7.5 14.6 3 12"/>
    <polyline points="21 12 16.5 14.6 16.5 19.79"/>
    <polyline points="3.27 6.96 12 12.01 20.73 6.96"/>
    <line x1="12" y1="22.08" x2="12" y2="12"/>
  </symbol>
</svg>

